<svg width="176" height="223" xmlns="http://www.w3.org/2000/svg"><g fill="none" fill-rule="evenodd"><path d="M106.1 189.6c1.2 2.7-1.9 13.3.7 19.1 2.6 5.8 5.4 6.9 12.3 9.5 7 2.7 14.1 5.1 17.9 3.4 3.9-1.7 9-6.8 17.1-10.4 8.1-3.6 7.3-3.3 13.9-10.3 6.6-7.1 8.4-13.4 6.1-18.4-2.2-5-6.4-6.6-11.4-8.6-5-1.9-5-1.9-11.7-4.5-6.7-2.6-10.3-4-14.5-5.6-4.2-1.6-6.2-6.2-10.9-4.2-4.6 2.1-8.2-.3-10 4.5-1.8 4.7-5.1 3.8-6.3 6.7-1.1 2.9-1.6 1.9-.2 5 1.4 3.1 3.2 4.2 2.6 5.8-.7 1.6-7 5.1-5.6 8z" fill="#F7941E"/><path d="M162.6 173.9c-5-1.9-5-1.9-11.7-4.5-6.7-2.6-10.3-4-14.5-5.6-4.2-1.6-6.2-6.2-10.9-4.2-4.6 2.1-8.2-.3-10 4.5-1.8 4.7-5.1 3.8-6.3 6.7-1.1 2.9-1.6 1.9-.2 5 1.4 3.1 3.2 4.2 2.6 5.8-.6 1.6-6.9 5-5.6 8 1.2 2.7-1.9 13.3.7 19.1 0 0 1.6 2.5 6.6-2.9 5-5.5 15.4-10.1 18.5-11.5 3.1-1.4 6.5-1 13.1-1.7 6.6-.6 11 1.3 12.8-3.4 1.8-4.6 14.4-11.6 4.9-15.3z" fill="#DB6A1D"/><path d="M168.5 177.7c1-.6 1.5-1.6 1.1-2.2l-16.2-24.9c-.4-.6-1.5-.6-2.5.1-1 .6-1.5 1.6-1.1 2.2l16.2 24.9c.4.5 1.5.5 2.5-.1zM147.8 145.8c1-.6 1.4-1.7.9-2.5l-19.4-30c-.5-.7-1.6-.8-2.6-.2-1 .6-1.4 1.7-.9 2.5l19.4 30c.4.7 1.6.8 2.6.2zM123 107.5c1-.6 1.6-1.4 1.5-1.6l-7.4-11.4c-.2-.3-1.1 0-2.1.7-1 .6-1.6 1.4-1.4 1.6l7.4 11.4c0 .2 1-.1 2-.7zM156.3 176.5c1-.6 1.4-1.8.9-2.6l-21-32.4c-.5-.8-1.7-.9-2.7-.3-1 .6-1.4 1.8-.9 2.6l21 32.4c.6.8 1.8.9 2.7.3zM128.5 133.6c1-.6 1.2-2 .5-3.1l-28.7-44.4c-.7-1.1-2-1.4-3-.8-1 .6-1.2 2-.5 3.1l28.7 44.4c.7 1.1 2.1 1.4 3 .8zM91.8 76.9c1-.6 1.6-1.4 1.3-1.8l-9.7-15c-.2-.4-1.2-.1-2.2.5-1 .6-1.6 1.4-1.3 1.8l9.7 15c.2.3 1.2.1 2.2-.5zM75 51c1-.6 1.6-1.4 1.4-1.8l-9.7-15c-.2-.4-1.2-.1-2.2.5-1 .6-1.6 1.4-1.4 1.8l9.7 15c.3.3 1.2.1 2.2-.5zM137.3 166.2c1-.6 1.3-1.8.8-2.7l-22.6-34.9c-.5-.8-1.8-1-2.8-.4-1 .6-1.3 1.8-.8 2.7l22.6 34.9c.6.8 1.8 1 2.8.4zM156.2 195.2c1-.6 1.5-1.5 1.2-2l-12.6-19.4c-.3-.5-1.3-.3-2.3.3-1 .6-1.5 1.5-1.2 2l12.6 19.4c.2.5 1.3.4 2.3-.3zM106.8 119c1-.6 1.3-1.9.6-2.9L81 75.3c-.6-1-1.9-1.3-2.9-.6-1 .6-1.3 1.9-.6 2.9l26.4 40.8c.6 1 1.9 1.2 2.9.6zM134.1 182.3c1-.6 1.3-1.9.7-2.8l-24.5-37.8c-.6-.9-1.9-1.1-2.8-.5-1 .6-1.3 1.9-.7 2.8l24.5 37.8c.6.9 1.8 1.2 2.8.5zM101.1 131.4c1-.6 1.5-1.5 1.2-2L89.1 109c-.3-.5-1.4-.4-2.3.3-1 .6-1.5 1.5-1.2 2l13.2 20.4c.2.4 1.3.3 2.3-.3zM42 40.3c1-.6 1.6-1.5 1.3-1.8L33.1 22.8c-.2-.4-1.2-.2-2.2.5-1 .6-1.6 1.5-1.3 1.8l10.2 15.7c.3.3 1.2.1 2.2-.5zM81.3 100.9c1-.6 1.2-2 .5-3.1L52.8 53c-.7-1.1-2.1-1.4-3-.8-1 .6-1.2 2-.5 3.1l29 44.8c.7 1.1 2 1.4 3 .8zM114.8 176.7c1-.6 1.4-1.7.9-2.4l-19.4-29.9c-.5-.7-1.6-.8-2.6-.2-1 .6-1.4 1.7-.9 2.4l19.4 29.9c.5.8 1.7.8 2.6.2zM85.7 131.8c1-.6 1.3-1.9.6-2.9L59.9 88.1c-.6-1-1.9-1.3-2.9-.6-1 .6-1.3 1.9-.6 2.9l26.4 40.8c.6.9 1.9 1.2 2.9.6zM51 78.2c1-.6 1.4-1.7.9-2.5L32.2 45.3c-.5-.7-1.6-.8-2.6-.2-1 .6-1.4 1.7-.9 2.5L48.4 78c.5.8 1.6.9 2.6.2zM22.6 34.4c1-.6 1.4-1.7.9-2.5L3.8 1.5C3.3.8 2.2.7 1.2 1.3.2 1.9-.2 3 .3 3.8L20 34.2c.5.8 1.6.9 2.6.2zM116.6 200.7c1-.7 1.3-1.8.9-2.5l-20.7-30.9c-.5-.7-1.7-.8-2.7-.2-1 .7-1.3 1.8-.9 2.5l20.7 30.9c.5.8 1.7.9 2.7.2zM88.1 157.3c1-.6 1.3-2 .6-2.9L61.9 113c-.6-1-2-1.3-2.9-.7-1 .6-1.2 2-.6 2.9l26.8 41.4c.7 1 2 1.3 2.9.7zM52.8 102.7c1-.6 1.4-1.7.9-2.5L33.8 69.5c-.5-.7-1.7-.8-2.6-.2-1 .6-1.4 1.7-.9 2.5l19.9 30.7c.4.7 1.6.8 2.6.2zM25 59.8c1-.6 1.5-1.6 1.2-2.1L12.7 36.8c-.3-.5-1.4-.4-2.4.2-1 .6-1.5 1.6-1.2 2.1L22.6 60c.3.5 1.4.4 2.4-.2zM107.3 206.3c1-.6 1.3-1.9.7-2.9l-25.6-39.5c-.6-.9-1.9-1.2-2.9-.6s-1.3 1.9-.7 2.9l25.6 39.5c.6.9 1.9 1.2 2.9.6zM74.2 155.2c1-.6 1.3-1.9.6-2.9l-26.4-40.8c-.6-1-1.9-1.3-2.9-.6-1 .6-1.3 1.9-.6 2.9l26.4 40.8c.6 1 1.9 1.2 2.9.6zM39.5 101.7c1-.6 1.5-1.5 1.3-1.9L29.4 82.2c-.3-.4-1.3-.3-2.3.4-1 .6-1.6 1.5-1.3 1.9l11.4 17.6c.3.4 1.3.2 2.3-.4z" fill="#FAA819"/></g></svg>
