<svg width="155" height="184" xmlns="http://www.w3.org/2000/svg"><g fill="none" fill-rule="evenodd"><path d="M74.4 125.4c1-.9 2.2-1.2 2.7-.6l5.1 5.9c-.2-.5 0-1.2.5-1.7.5-.4 1.1-.5 1.5-.4l-6.1-7.1c-.5-.5-.3-1.4.4-2 .5-.4 1-.5 1.5-.4l-10.3-12c-.5-.5-.3-1.4.4-2 .7-.6 1.5-.6 2-.1l11.3 13.1c-.4-.5-.3-1.4.4-1.9.6-.5 1.5-.6 1.9-.1L64.6 91.5c-.5-.5-.3-1.4.4-2 .7-.6 1.5-.6 2-.1l33 38.5-19.2-22.4c-.5-.5-.3-1.4.4-2 .7-.6 1.6-.6 2-.1l12.1 14.1c.1-.2.2-.4.4-.6.6-.5 1.4-.5 1.8-.1l-18.8-22c-.5-.5-.3-1.4.4-2 .7-.6 1.5-.6 2-.1l10 11.6c0-.4.1-.9.5-1.2.3-.3.7-.4 1.1-.4L73.3 80.1c-.5-.5-.3-1.4.4-2 .7-.6 1.5-.6 2-.1l12.1 14.1c-.2-.5 0-1.1.5-1.5.4-.3.9-.4 1.3-.3l-5.1-6c-.5-.5-.1-1.5.7-2.3.8-.7 1.9-.9 2.3-.4l15.6 18.2c-.1-.4.1-.9.5-1.3.5-.4 1.1-.5 1.6-.2l-6.6-7.6c-.4-.5-.3-1.3.3-1.9.6-.5 1.4-.5 1.9 0l20.8 24.2.1-.1L91 78h-.3L66.4 49.2c-.6-.7-2-.6-3 .3-1 .9-1.4 2.2-.8 3L84 77.4s-.2 1.6-1.7 1.5L36.6 25.6c-.6-.7-2-.6-3 .3-1 .9-1.4 2.2-.8 3l34.7 40.4s-.2 1-.9 3L5 .5c-.6-.7-2-.6-3 .3-1 .9-1.4 2.2-.8 3L55.4 67l-5.7-4.3-2.5-2.9c-.2-.7-.6-1.5-1.1-1.3L7.8 13.9c-.6-.7-2-.6-3 .3-1 .9-1.4 2.2-.8 3l49.1 57.2s0 .7-.9.9L10.4 26.6c-.6-.7-2-.6-3 .3-1 .9-1.4 2.2-.8 3l50 58.3s-.1 1.2-1.4 1.1l-31-36.1c-.6-.7-2-.6-3 .3-1 .9-1.4 2.2-.8 3l52.1 60.7-.6 1.3-18.3-21.3c-.6-.7-2-.6-3 .3-1 .9-1.4 2.2.6 4.5l18.4 21.3v.1l3.7 4.3c-.2-.7.2-1.6 1.1-2.3zM89 146l23.3 27.2z" fill="#FFCB05"/><path d="M147.5 143.8l-26.1-30.4-.1.1-20.8-24.2c-.4-.5-1.3-.5-1.9 0-.6.5-.7 1.3-.3 1.9l6.6 7.6c-.4-.3-1.1-.2-1.6.2-.4.3-.6.8-.5 1.3L87.2 82.1c-.5-.5-1.5-.4-2.3.4-.8.7-1.2 1.7-.7 2.3l5.1 6c-.4-.1-.9 0-1.3.3-.5.4-.7 1-.5 1.5L75.4 78.5c-.5-.5-1.3-.5-2 .1s-.8 1.4-.4 2l19.4 22.6c-.4 0-.7.1-1.1.4-.4.3-.6.8-.5 1.2l-10-11.6c-.5-.5-1.3-.5-2 .1s-.8 1.4-.4 2l18.8 22c-.4-.5-1.2-.4-1.8.1-.2.2-.3.4-.4.6l-12.1-14.1c-.4-.5-1.3-.5-2 .1s-.8 1.4-.4 2l19.2 22.4-33-38.5c-.5-.5-1.3-.5-2 .1s-.8 1.4-.4 2l21.1 24.6c-.5-.4-1.3-.4-1.9.1-.6.6-.8 1.4-.4 1.9l-11.3-13.1c-.5-.5-1.3-.5-2 .1s-.8 1.4-.4 2l10.3 12c-.5-.1-1 0-1.5.4-.7.6-.8 1.4-.4 2l6.1 7.1c-.5-.2-1.1 0-1.5.4-.5.5-.7 1.2-.5 1.7l-5.1-5.9c-.5-.5-1.6-.2-2.7.6-.8.7-1.3 1.6-1.2 2.2 0 .1.1.2.1.3L89 146l23.3 27.2c.6.6 1.2 1.3 1.9 1.9.4.5 5.3 5.2 7.1 5.7 6.3 3.8 14.3 5.3 23.3-1.9 15.9-14.8 8.7-28.1 2.9-35.1zm-24.8 31.8c-8-5.3-10.2-15.9-5-23.8 5.2-7.9 15.9-10.1 23.9-4.8 8 5.3 10.2 15.9 5 23.8-5.3 7.9-16 10-23.9 4.8z" fill="#FBAD18" fill-rule="nonzero"/><path d="M141.5 146.9c-8-5.3-18.7-3.1-23.9 4.8-5.2 7.9-3 18.6 5 23.8 8 5.2 18.7 3.1 23.9-4.8 5.2-7.8 3-18.5-5-23.8zm1.7 21.7c-4 6.1-12.3 7.8-18.4 3.7-6.2-4.1-7.9-12.3-3.9-18.4 4-6.1 12.3-7.8 18.4-3.7 6.2 4 8 12.3 3.9 18.4z" fill="#F47D20" fill-rule="nonzero"/><path d="M139.4 150.2c-6.2-4.1-14.4-2.4-18.4 3.7-4 6.1-2.3 14.4 3.9 18.4 6.2 4.1 14.4 2.4 18.4-3.7 4-6.1 2.2-14.4-3.9-18.4zm1 16.7c-3 4.6-9.1 5.8-13.7 2.8s-5.9-9.2-2.9-13.7c3-4.6 9.1-5.8 13.7-2.8s5.9 9.2 2.9 13.7z" fill="#FBAD18" fill-rule="nonzero"/><circle fill="#FFF200" transform="rotate(-56.626 132.007 161.515)" cx="132.007" cy="161.515" r="9.9"/></g></svg>
