<?xml version="1.0" encoding="UTF-8"?>
<svg width="694px" height="414px" viewBox="0 0 694 414" version="1.1" xmlns="http://www.w3.org/2000/svg" xmlns:xlink="http://www.w3.org/1999/xlink">
    <!-- Generator: Sketch 52.6 (67491) - http://www.bohemiancoding.com/sketch -->
    <title>Artboard</title>
    <desc>Created with Sketch.</desc>
    <g id="Artboard" stroke="none" stroke-width="1" fill="none" fill-rule="evenodd">
        <g id="Group" transform="translate(0.000000, 71.000000)" fill="#734B94">
            <ellipse id="Oval" cx="315.7" cy="3.5" rx="2.6" ry="2.7"></ellipse>
            <ellipse id="Oval" cx="379.3" cy="102" rx="2.6" ry="2.7"></ellipse>
            <ellipse id="Oval" cx="337.3" cy="179" rx="2.6" ry="2.7"></ellipse>
            <ellipse id="Oval" cx="343.4" cy="174.4" rx="2" ry="2.1"></ellipse>
            <ellipse id="Oval" cx="440.5" cy="85.5" rx="2" ry="2.1"></ellipse>
            <ellipse id="Oval" cx="309.8" cy="103.5" rx="2" ry="2.1"></ellipse>
            <ellipse id="Oval" cx="217.1" cy="130.1" rx="2" ry="2.1"></ellipse>
            <ellipse id="Oval" cx="313.1" cy="236.8" rx="2" ry="2.1"></ellipse>
            <ellipse id="Oval" cx="254" cy="57.7" rx="2" ry="2.1"></ellipse>
            <ellipse id="Oval" cx="222.9" cy="251.9" rx="2" ry="2.1"></ellipse>
            <ellipse id="Oval" cx="101.1" cy="62.1" rx="2.6" ry="2.7"></ellipse>
            <ellipse id="Oval" cx="164.7" cy="160.6" rx="2.6" ry="2.7"></ellipse>
            <ellipse id="Oval" cx="122.7" cy="237.6" rx="2.6" ry="2.7"></ellipse>
            <ellipse id="Oval" cx="128.9" cy="233" rx="2" ry="2.1"></ellipse>
            <ellipse id="Oval" cx="226" cy="144.1" rx="2" ry="2.1"></ellipse>
            <ellipse id="Oval" cx="95.3" cy="162" rx="2" ry="2.1"></ellipse>
            <ellipse id="Oval" cx="2.6" cy="188.7" rx="2" ry="2.1"></ellipse>
            <ellipse id="Oval" cx="98.6" cy="295.4" rx="2" ry="2.1"></ellipse>
            <ellipse id="Oval" cx="39.5" cy="116.3" rx="2" ry="2.1"></ellipse>
            <ellipse id="Oval" cx="8.4" cy="310.5" rx="2" ry="2.1"></ellipse>
        </g>
        <g id="Group" opacity="0.559895833" transform="translate(251.000000, 0.000000)" fill="#E1E2E2">
            <ellipse id="Oval" cx="315.5" cy="3.1" rx="2.6" ry="2.7"></ellipse>
            <ellipse id="Oval" cx="379.1" cy="101.6" rx="2.6" ry="2.7"></ellipse>
            <ellipse id="Oval" cx="337.1" cy="178.6" rx="2.6" ry="2.7"></ellipse>
            <ellipse id="Oval" cx="343.2" cy="174" rx="2" ry="2.1"></ellipse>
            <ellipse id="Oval" cx="440.3" cy="85.2" rx="2" ry="2.1"></ellipse>
            <ellipse id="Oval" cx="309.7" cy="103.1" rx="2" ry="2.1"></ellipse>
            <ellipse id="Oval" cx="216.9" cy="129.7" rx="2" ry="2.1"></ellipse>
            <ellipse id="Oval" cx="312.9" cy="236.5" rx="2" ry="2.1"></ellipse>
            <ellipse id="Oval" cx="253.9" cy="57.3" rx="2" ry="2.1"></ellipse>
            <ellipse id="Oval" cx="222.7" cy="251.5" rx="2" ry="2.1"></ellipse>
            <ellipse id="Oval" cx="101" cy="61.7" rx="2.6" ry="2.7"></ellipse>
            <ellipse id="Oval" cx="164.6" cy="160.2" rx="2.6" ry="2.7"></ellipse>
            <ellipse id="Oval" cx="122.6" cy="237.2" rx="2.6" ry="2.7"></ellipse>
            <ellipse id="Oval" cx="128.7" cy="232.6" rx="2" ry="2.1"></ellipse>
            <ellipse id="Oval" cx="225.8" cy="143.7" rx="2" ry="2.1"></ellipse>
            <ellipse id="Oval" cx="95.1" cy="161.6" rx="2" ry="2.1"></ellipse>
            <ellipse id="Oval" cx="2.4" cy="188.3" rx="2" ry="2.1"></ellipse>
            <ellipse id="Oval" cx="98.4" cy="295" rx="2" ry="2.1"></ellipse>
            <ellipse id="Oval" cx="39.3" cy="115.9" rx="2" ry="2.1"></ellipse>
            <ellipse id="Oval" cx="8.2" cy="310.1" rx="2" ry="2.1"></ellipse>
        </g>
        <g id="Group" opacity="0.559895833" transform="translate(14.000000, 27.000000)" fill="#E1E2E2">
            <ellipse id="Oval" cx="337.4" cy="65.5" rx="2.6" ry="2.7"></ellipse>
            <ellipse id="Oval" cx="343.6" cy="60.9" rx="2" ry="2.1"></ellipse>
            <ellipse id="Oval" cx="217.3" cy="16.6" rx="2" ry="2.1"></ellipse>
            <ellipse id="Oval" cx="313.3" cy="123.4" rx="2" ry="2.1"></ellipse>
            <ellipse id="Oval" cx="223.1" cy="138.4" rx="2" ry="2.1"></ellipse>
            <ellipse id="Oval" cx="164.9" cy="47.1" rx="2.6" ry="2.7"></ellipse>
            <ellipse id="Oval" cx="122.9" cy="124.1" rx="2.6" ry="2.7"></ellipse>
            <ellipse id="Oval" cx="129" cy="119.5" rx="2" ry="2.1"></ellipse>
            <ellipse id="Oval" cx="226.1" cy="30.6" rx="2" ry="2.1"></ellipse>
            <ellipse id="Oval" cx="95.5" cy="48.5" rx="2" ry="2.1"></ellipse>
            <ellipse id="Oval" cx="2.7" cy="75.2" rx="2" ry="2.1"></ellipse>
            <ellipse id="Oval" cx="98.7" cy="181.9" rx="2" ry="2.1"></ellipse>
            <ellipse id="Oval" cx="39.6" cy="2.8" rx="2" ry="2.1"></ellipse>
            <ellipse id="Oval" cx="8.5" cy="197" rx="2" ry="2.1"></ellipse>
        </g>
        <g id="Group" opacity="0.559895833" transform="translate(353.000000, 251.000000)" fill="#E1E2E2">
            <ellipse id="Oval" cx="315.8" cy="3.4" rx="2.6" ry="2.7"></ellipse>
            <ellipse id="Oval" cx="310" cy="103.4" rx="2" ry="2.1"></ellipse>
            <ellipse id="Oval" cx="217.2" cy="130" rx="2" ry="2.1"></ellipse>
            <ellipse id="Oval" cx="254.2" cy="57.6" rx="2" ry="2.1"></ellipse>
            <ellipse id="Oval" cx="101.3" cy="62" rx="2.6" ry="2.7"></ellipse>
            <ellipse id="Oval" cx="164.9" cy="160.5" rx="2.6" ry="2.7"></ellipse>
            <ellipse id="Oval" cx="226.1" cy="144" rx="2" ry="2.1"></ellipse>
            <ellipse id="Oval" cx="95.4" cy="161.9" rx="2" ry="2.1"></ellipse>
            <ellipse id="Oval" cx="39.6" cy="116.2" rx="2" ry="2.1"></ellipse>
        </g>
        <g id="Group" transform="translate(471.000000, 191.000000)" fill="#734B94">
            <ellipse id="Oval" cx="217.1" cy="130.1" rx="2" ry="2.1"></ellipse>
            <ellipse id="Oval" cx="101.1" cy="62.1" rx="2.6" ry="2.7"></ellipse>
            <ellipse id="Oval" cx="164.7" cy="160.6" rx="2.6" ry="2.7"></ellipse>
            <ellipse id="Oval" cx="95.3" cy="162" rx="2" ry="2.1"></ellipse>
            <ellipse id="Oval" cx="2.6" cy="188.7" rx="2" ry="2.1"></ellipse>
            <ellipse id="Oval" cx="39.5" cy="116.3" rx="2" ry="2.1"></ellipse>
        </g>
    </g>
</svg>